<?xml version="1.0" encoding="utf-8"?>
<!-- Generator: Adobe Illustrator 16.0.0, SVG Export Plug-In . SVG Version: 6.00 Build 0)  -->
<!DOCTYPE svg PUBLIC "-//W3C//DTD SVG 1.1//EN" "http://www.w3.org/Graphics/SVG/1.1/DTD/svg11.dtd">
<svg version="1.1" id="Layer_1" xmlns="http://www.w3.org/2000/svg" xmlns:xlink="http://www.w3.org/1999/xlink" x="0px" y="0px"
	 width="715.973px" height="243.135px" viewBox="0 0 715.973 243.135" enable-background="new 0 0 715.973 243.135"
	 xml:space="preserve">
<g>
	
		<linearGradient id="SVGID_1_" gradientUnits="userSpaceOnUse" x1="134.7869" y1="50.0681" x2="20.6358" y2="164.2192" gradientTransform="matrix(1 0 0 -1 24.9448 234.4946)">
		<stop  offset="0" style="stop-color:#90723B"/>
		<stop  offset="0.33" style="stop-color:#FFF7C6"/>
		<stop  offset="0.66" style="stop-color:#EBD592"/>
		<stop  offset="1" style="stop-color:#9C8256"/>
	</linearGradient>
	<path fill="url(#SVGID_1_)" d="M136.373,153.673c0-4.067-3.319-7.387-7.389-7.387c-4.068,0-7.416,3.319-7.416,7.387
		c0,4.068,3.348,7.388,7.416,7.388C133.054,161.061,136.373,157.741,136.373,153.673z"/>
	
		<linearGradient id="SVGID_2_" gradientUnits="userSpaceOnUse" x1="159.1487" y1="74.4333" x2="45.0035" y2="188.5784" gradientTransform="matrix(1 0 0 -1 24.9448 234.4946)">
		<stop  offset="0" style="stop-color:#90723B"/>
		<stop  offset="0.33" style="stop-color:#FFF7C6"/>
		<stop  offset="0.66" style="stop-color:#EBD592"/>
		<stop  offset="1" style="stop-color:#9C8256"/>
	</linearGradient>
	<path fill="url(#SVGID_2_)" d="M224.311,177.794V48.066c-2.542,4.203-11.188,10.091-14.856,13.975
		c-4.926,5.193-7.95,10.064-7.979,15.5c0,10.762,7.095,17.427,15.26,30.115c-8.112-10.467-18.604-15.419-18.926-29.768
		c-0.108-5.675,2.864-11.565,8.833-17.668c4.499-4.605,13.038-10.44,17.668-17.159V32.084c-1.953,10.226-13.224,16.569-21.87,25.109
		c-11.539,11.404-14.482,26.582-2.864,38.978c4.097,4.363,9.047,8.298,12.688,13.573c2.248,3.318,3.32,10.358-3.961,11.911
		c-4.203,0.911-8.621-0.747-10.869-4.2c-0.375-0.564-0.643-1.18-0.749-1.822c0.508,0.321,1.124,0.508,1.767,0.508
		c1.902,0,3.428-1.524,3.428-3.425c0-1.875-1.525-3.428-3.428-3.428c-0.026,0-0.054,0-0.081,0.026c-0.374-0.026-0.777-0.026-1.178,0
		c-9.021,0.43-13.414,6.479-13.464,12.154c-0.056,5.436,2.916,10.014,7.574,13.039c4.873,3.158,11.296,4.335,18.979,4.765
		c-17.507,21.71-48.775,19.061-65.583-1.794c0.667-0.053,1.31-0.081,1.952-0.134c4.31,4.31,9.129,7.87,13.788,10.333
		c5.514,2.971,10.868,4.444,16.328,4.927c9.316,0.801,19.542-2.519,27.976-10.387c-8.004,6.45-19.328,9.262-29.582,7.868
		c-9.663-1.313-18.364-6.45-24.306-13.144c5.916-0.723,11.003-2.114,15.098-4.793c5.221-3.397,8.568-8.512,8.512-14.589
		c-0.078-6.372-4.979-13.144-15.097-13.626c-0.749-0.025-1.554-0.025-2.115,0.08c-1.767,0.134-3.186,1.606-3.186,3.374
		c0,1.9,1.552,3.425,3.427,3.425c0.99,0,1.9-0.427,2.517-1.096c0.134,1.178-0.268,2.329-0.911,3.319
		c-2.516,3.881-7.281,5.782-11.992,4.766c-8.138-1.768-7.173-9.664-4.631-13.358c4.097-5.942,9.64-10.36,14.214-15.231
		c13.01-13.894,9.719-30.918-3.212-43.688c-9.69-9.556-22.326-16.677-24.494-28.106c-2.194,11.43-14.828,18.552-24.494,28.106
		C91.56,58.295,88.269,75.32,101.253,89.213c4.577,4.872,10.144,9.29,14.213,15.231c2.544,3.694,3.535,11.295-4.604,13.064
		c-4.738,1.017-9.476-0.59-11.991-4.471c-0.614-0.938-0.99-2.008-0.937-3.078c0.615,0.535,1.393,0.883,2.275,0.883
		c1.874,0,3.425-1.553,3.425-3.426c0-1.474-0.936-2.705-2.247-3.187c-0.536-0.295-1.687-0.348-2.813-0.295
		c-10.092,0.483-14.99,7.255-15.069,13.626c-0.053,6.078,3.266,11.191,8.512,14.589c4.122,2.706,9.29,4.096,15.313,4.821
		c-5.97,6.693-14.645,11.804-24.308,13.115c-10.252,1.395-21.577-1.417-29.581-7.868c8.432,7.868,18.657,11.188,28,10.387
		c5.437-0.481,10.79-1.956,16.331-4.927c4.631-2.463,9.45-6.023,13.762-10.309c0.563,0.027,1.148,0.081,1.738,0.108
		c-16.943,21.014-48.023,23.583-65.613,1.794c7.712-0.43,14.134-1.606,18.979-4.765c4.659-3.024,7.657-7.604,7.604-13.039
		c-0.082-5.676-4.445-11.725-13.467-12.154c-0.724-0.026-1.443-0.026-1.98,0.081c-1.688,0.214-2.971,1.633-2.971,3.373
		c0,1.901,1.526,3.427,3.398,3.427c0.804,0,1.5-0.27,2.088-0.697c-0.106,0.697-0.399,1.339-0.776,1.956
		c-2.249,3.454-6.503,5.246-10.708,4.336c-7.28-1.555-6.397-8.729-4.122-12.047c3.641-5.274,8.591-9.21,12.687-13.573
		C69.984,83.776,67.04,68.598,55.5,57.194c-8.619-8.54-19.915-14.885-21.87-25.109v10.119C38.101,49.27,47.175,55.4,51.887,60.219
		c5.969,6.103,8.94,11.993,8.808,17.668c-0.32,14.348-10.815,19.3-18.926,29.768c8.191-12.688,15.284-19.354,15.259-30.115
		c0-5.436-3.024-10.307-7.95-15.5c-4.044-4.258-14.026-10.922-15.446-15.152v130.906c23.583-3.881,57.609-6.319,95.354-6.319
		C166.704,171.475,200.729,173.913,224.311,177.794z M193.098,133.41c-2.812-1.607-4.953-3.803-6.076-6.16
		c-2.141-4.522-1.848-9.021,1.688-12.503c2.062-2.006,5.006-3.131,7.95-3.371c0.989-0.081,2.783-0.242,3.104,0.964
		c0.16,0.588-0.105,1.418-1.043,1.632c-0.749,0.188-1.685-0.133-2.088-1.338C185.602,114.776,183.487,125.378,193.098,133.41z
		 M203.217,156.993c2.729,0,4.979,2.224,4.979,4.951c0,2.731-2.25,4.98-4.979,4.98c-2.731,0-4.953-2.249-4.953-4.98
		C198.264,159.216,200.486,156.993,203.217,156.993z M188.76,160.982c1.366,0,2.492,1.124,2.492,2.488
		c0,1.367-1.126,2.492-2.492,2.492c-1.364,0-2.488-1.125-2.488-2.492C186.271,162.106,187.396,160.982,188.76,160.982z
		 M176.368,161.892c0.989,0,1.818,0.804,1.818,1.822c0,0.991-0.829,1.819-1.818,1.819c-1.02,0-1.822-0.829-1.822-1.819
		C174.546,162.695,175.349,161.892,176.368,161.892z M164.749,159.188c1.365,0,2.489,1.125,2.489,2.491
		c0,1.364-1.125,2.489-2.489,2.489s-2.49-1.125-2.49-2.489C162.259,160.313,163.385,159.188,164.749,159.188z M150.695,154.343
		c2.274,0,4.148,1.85,4.148,4.123c0,2.302-1.875,4.147-4.148,4.147c-2.275,0-4.123-1.847-4.123-4.147
		C146.572,156.192,148.419,154.343,150.695,154.343z M159.743,107.28c-0.455,1.365-1.474,1.446-2.304,1.26
		c-1.069-0.242-1.391-0.938-1.229-1.554c0.374-1.338,2.381-1.205,3.508-1.098c3.291,0.267,6.61,1.526,8.914,3.802
		c3.987,3.88,4.309,8.94,1.9,14.028c-1.259,2.65-3.669,5.111-6.827,6.905C174.522,121.603,172.138,109.69,159.743,107.28z
		 M87.143,123.718c-2.409-5.088-2.088-10.148,1.902-14.028c2.302-2.274,5.622-3.535,8.912-3.802
		c1.126-0.107,3.132-0.241,3.507,1.098c0.162,0.617-0.159,1.312-1.23,1.554c-0.83,0.187-1.847,0.105-2.302-1.26
		c-12.395,2.41-14.778,14.322-3.963,23.344C90.812,128.83,88.402,126.369,87.143,123.718z M61.069,112.634
		c-0.399,1.205-1.338,1.527-2.087,1.338c-0.938-0.214-1.179-1.043-1.045-1.632c0.319-1.206,2.113-1.044,3.106-0.964
		c2.944,0.24,5.888,1.365,7.95,3.371c3.534,3.481,3.827,7.979,1.687,12.503c-1.125,2.356-3.264,4.553-6.076,6.16
		C74.241,125.378,72.097,114.776,61.069,112.634z M56.064,165.987c-2.491,0-4.524-2.033-4.524-4.524
		c0-2.489,2.033-4.522,4.524-4.522c2.489,0,4.524,2.034,4.524,4.522C60.588,163.954,58.553,165.987,56.064,165.987z M69.369,165.962
		c-1.366,0-2.49-1.101-2.49-2.492c0-1.364,1.125-2.488,2.49-2.488c1.391,0,2.487,1.124,2.487,2.488
		C71.857,164.863,70.76,165.962,69.369,165.962z M81.791,165.533c-0.992,0-1.82-0.829-1.82-1.819c0-1.019,0.829-1.822,1.82-1.822
		c1.017,0,1.818,0.804,1.818,1.822C83.61,164.704,82.808,165.533,81.791,165.533z M93.756,164.944c-1.366,0-2.49-1.124-2.49-2.49
		c0-1.364,1.125-2.489,2.49-2.489c1.364,0,2.49,1.125,2.49,2.489C96.246,163.82,95.121,164.944,93.756,164.944z M107.57,162.614
		c-2.144,0-3.884-1.74-3.884-3.88c0-2.114,1.74-3.854,3.884-3.854c2.141,0,3.881,1.741,3.881,3.854
		C111.451,160.874,109.71,162.614,107.57,162.614z M146.063,122.36l4.532,4.531l-4.532,4.531l-4.53-4.531L146.063,122.36z
		 M111.841,87.685c-1.554-1.5-3.021-2.917-4.353-4.333c-12.618-13.5-2.097-26.696,3.014-31.742c2.415-2.388,5.175-4.729,7.845-6.994
		c3.681-3.125,7.42-6.297,10.628-9.844c3.218,3.561,6.972,6.741,10.67,9.876c2.664,2.256,5.415,4.59,7.825,6.965
		c5.105,5.043,15.626,18.238,2.974,31.748c-1.321,1.409-2.789,2.826-4.341,4.327c-3.474,3.359-7.41,7.166-10.673,11.898
		c-1.511,2.193-2.862,5.369-3.232,8.901l-2.973-2.975l-3.436,3.437c-0.287-3.705-1.699-7.067-3.278-9.361
		C119.273,94.86,115.326,91.048,111.841,87.685z M137.597,125.761l-8.466,8.464l-8.463-8.464l8.463-8.469L137.597,125.761z
		 M108.54,126.891l4.528-4.531l4.534,4.531l-4.534,4.531L108.54,126.891z M115.944,153.673c0-7.178,5.863-13.04,13.041-13.04
		c7.176,0,13.04,5.861,13.04,13.04c0,7.176-5.863,13.042-13.04,13.042C121.807,166.715,115.944,160.849,115.944,153.673z"/>
	
		<linearGradient id="SVGID_3_" gradientUnits="userSpaceOnUse" x1="176.8528" y1="92.1311" x2="62.7018" y2="206.282" gradientTransform="matrix(1 0 0 -1 24.9448 234.4946)">
		<stop  offset="0" style="stop-color:#90723B"/>
		<stop  offset="0.33" style="stop-color:#FFF7C6"/>
		<stop  offset="0.66" style="stop-color:#EBD592"/>
		<stop  offset="1" style="stop-color:#9C8256"/>
	</linearGradient>
	<path fill="url(#SVGID_3_)" d="M129.228,93.413l0.057,0.055c3.543-4.843,7.583-8.749,10.918-11.974
		c1.459-1.411,2.837-2.743,3.998-3.98c2.058-2.198,8.32-8.886-2.737-19.805c-2.191-2.161-4.814-4.383-7.364-6.543
		c-1.698-1.439-3.42-2.9-5.125-4.422c-1.693,1.515-3.412,2.973-5.111,4.416c-2.54,2.154-5.167,4.384-7.349,6.541
		c-11.071,10.933-4.826,17.614-2.791,19.792c1.188,1.265,2.585,2.61,4.062,4.037c3.373,3.257,7.52,7.261,11.092,12.235
		L129.228,93.413z"/>
	
		<linearGradient id="SVGID_4_" gradientUnits="userSpaceOnUse" x1="6.9373" y1="24.8792" x2="201.6311" y2="24.8792" gradientTransform="matrix(1 0 0 -1 24.9448 234.4946)">
		<stop  offset="0" style="stop-color:#90723B"/>
		<stop  offset="0.33" style="stop-color:#FFF7C6"/>
		<stop  offset="0.66" style="stop-color:#EBD592"/>
		<stop  offset="1" style="stop-color:#9C8256"/>
	</linearGradient>
	<path fill="url(#SVGID_4_)" d="M225.773,208.607c-0.913-1.228-1.75-1.695-2.5-2.162c-0.759-0.432-1.476-0.756-2.186-1.052
		c-1.412-0.565-2.793-1.007-4.171-1.395c-5.503-1.535-11.063-2.366-16.728-3.176c-11.319-1.501-23.008-2.535-34.904-3.097
		c-11.895-0.586-23.978-0.885-36.061-0.921c-12.083,0.047-24.167,0.337-36.06,0.926c-11.896,0.575-23.584,1.597-34.905,3.103
		c-5.664,0.804-11.222,1.646-16.722,3.175c-1.381,0.388-2.76,0.829-4.171,1.395c-0.712,0.3-1.428,0.62-2.186,1.056
		c-0.75,0.463-1.587,0.932-2.497,2.156c-0.229,0.389-0.424,0.608-0.649,1.393c-0.048,0.173-0.083,0.343-0.111,0.513l-0.017,0.141
		l-0.012,0.122c-0.004-0.077-0.026,0.852,0,0.67c0.092,1.144,0.63,2.012,1.063,2.508c0.929,1.067,1.71,1.447,2.456,1.869
		c1.476,0.753,2.82,1.183,4.159,1.584c5.31,1.476,10.331,2.168,15.233,2.768c4.892,0.563,9.608,0.954,14.136,1.258
		c9.054,0.622,17.353,0.834,24.701,0.93c7.351,0.116,13.755,0.02,19.028-0.078c5.27-0.084,9.409-0.285,12.229-0.395
		c2.821-0.123,4.324-0.189,4.324-0.189s-1.503-0.075-4.323-0.214c-2.817-0.159-6.946-0.396-12.202-0.695
		c-10.502-0.653-25.518-1.604-43.362-3.655c-4.456-0.527-9.086-1.146-13.828-1.938c-4.712-0.814-9.669-1.666-14.275-3.152
		c-0.747-0.251-1.486-0.527-2.151-0.826c0.16-0.062,0.315-0.128,0.48-0.189c1.095-0.395,2.3-0.736,3.547-1.038
		c5.02-1.169,10.459-1.953,15.977-2.59c11.069-1.274,22.651-1.868,34.413-2.406c11.768-0.494,23.749-0.698,35.726-0.656
		c11.979-0.031,23.956,0.162,35.726,0.661c11.759,0.55,23.342,1.133,34.41,2.41c5.518,0.631,10.954,1.426,15.974,2.595
		c1.246,0.298,2.454,0.642,3.547,1.035c0.159,0.059,0.306,0.12,0.458,0.181c-0.657,0.293-1.387,0.566-2.126,0.813
		c-4.604,1.486-9.562,2.343-14.272,3.151c-4.743,0.792-9.371,1.412-13.83,1.942c-17.844,2.048-32.857,3.004-43.358,3.66
		c-5.256,0.298-9.389,0.533-12.203,0.694c-2.819,0.143-4.323,0.218-4.323,0.218s1.504,0.066,4.324,0.192
		c2.822,0.109,6.959,0.311,12.23,0.396c5.272,0.098,11.679,0.194,19.026,0.081c7.353-0.093,15.65-0.308,24.704-0.93
		c4.528-0.304,9.244-0.691,14.136-1.252c4.9-0.607,9.922-1.297,15.234-2.772c1.339-0.401,2.685-0.831,4.163-1.584
		c0.746-0.421,1.528-0.801,2.459-1.872c0.222-0.251,0.459-0.614,0.657-1.01c0.118-0.237,0.251-0.628,0.32-0.951
		c0.044-0.209,0.06-0.321,0.06-0.324l0.017-0.123C226.677,210.184,226.215,209.294,225.773,208.607z M37.474,210.281
		c0,0,0.014,0.015,0.035,0.048C37.467,210.29,37.449,210.268,37.474,210.281z M220.931,210.321c0.021-0.024,0.035-0.045,0.038-0.045
		C220.995,210.262,220.973,210.284,220.931,210.321z"/>
	
		<linearGradient id="SVGID_5_" gradientUnits="userSpaceOnUse" x1="9.8474" y1="47.0481" x2="198.7146" y2="47.0481" gradientTransform="matrix(1 0 0 -1 24.9448 234.4946)">
		<stop  offset="0" style="stop-color:#90723B"/>
		<stop  offset="0.33" style="stop-color:#FFF7C6"/>
		<stop  offset="0.66" style="stop-color:#EBD592"/>
		<stop  offset="1" style="stop-color:#9C8256"/>
	</linearGradient>
	<path fill="url(#SVGID_5_)" d="M217.163,189.281c-2.497-1.127-5.594-2.304-9.196-3.408c-1.798-0.563-3.72-1.132-5.751-1.702
		c-1.013-0.315-2.076-0.458-3.172-0.502c-1.092-0.084-2.201-0.232-3.337-0.353c-18.148-1.995-42.312-3.046-66.48-3.041
		c-24.171-0.005-48.335,1.046-66.482,3.041c-1.135,0.125-2.243,0.26-3.337,0.34c-1.097,0.06-2.162,0.168-3.178,0.467
		c-2.03,0.568-3.954,1.135-5.753,1.698c-3.603,1.104-6.703,2.285-9.199,3.421c-2.501,1.109-4.392,2.281-5.49,3.342
		c-0.555,0.524-0.869,1.06-0.956,1.451c-0.085,0.404-0.002,0.571-0.022,0.581c0.012,0.014,0.025-0.222,0.219-0.494
		c0.197-0.288,0.615-0.595,1.229-0.865c1.225-0.552,3.235-0.904,5.801-1.188c2.577-0.268,5.745-0.388,9.373-0.481
		c1.818-0.034,3.754-0.039,5.797-0.015c1.022,0.022,2.048-0.137,3.098-0.334c1.05-0.182,2.134-0.299,3.241-0.418
		c17.736-1.952,41.711-3.005,65.66-2.997c23.948-0.008,47.924,1.044,65.658,2.997c1.109,0.123,2.193,0.231,3.245,0.407
		c1.046,0.215,2.076,0.337,3.101,0.295c2.044-0.021,3.981-0.02,5.8,0.015c3.632,0.092,6.798,0.218,9.374,0.493
		c2.568,0.291,4.576,0.656,5.801,1.217c0.611,0.275,1.027,0.586,1.225,0.876c0.194,0.29,0.201,0.499,0.213,0.494
		c-0.015,0,0.061-0.19-0.024-0.581c-0.09-0.386-0.406-0.917-0.959-1.439C221.556,191.545,219.663,190.387,217.163,189.281z"/>
</g>
<linearGradient id="SVGID_6_" gradientUnits="userSpaceOnUse" x1="236.761" y1="137.4475" x2="240.4324" y2="36.2139" gradientTransform="matrix(1 0 0 -1 24.9448 234.4946)">
	<stop  offset="0" style="stop-color:#90723B"/>
	<stop  offset="0.33" style="stop-color:#FFF7C6"/>
	<stop  offset="0.66" style="stop-color:#EBD592"/>
	<stop  offset="1" style="stop-color:#9C8256"/>
</linearGradient>
<path fill="url(#SVGID_6_)" d="M276.989,99.756v83.495c-4.468,0-12.232,15.74-16.805,23.397c-4.574,7.553-9.467,6.063-9.467,6.063
	c11.273-4.997,11.913-20.74,11.913-41.694c0-21.058,0-47.542,0-59.88c0-12.339-8.721-11.168-8.721-11.168L276.989,99.756z"/>
<linearGradient id="SVGID_7_" gradientUnits="userSpaceOnUse" x1="285.3777" y1="139.2102" x2="289.0492" y2="37.9752" gradientTransform="matrix(1 0 0 -1 24.9448 234.4946)">
	<stop  offset="0" style="stop-color:#90723B"/>
	<stop  offset="0.33" style="stop-color:#FFF7C6"/>
	<stop  offset="0.66" style="stop-color:#EBD592"/>
	<stop  offset="1" style="stop-color:#9C8256"/>
</linearGradient>
<path fill="url(#SVGID_7_)" d="M343.356,144.427c0.106,7.446-4.68,15.847-11.486,20.955c-6.063,4.467-15.528,9.039-30.525,9.039
	c-12.02,0-19.571-4.36-19.571-4.36s10.423-14.358,10.423-22.44c0,0-0.105-0.212,0.53-0.212c0.427,0,1.066,0.424,1.066,2.977
	c0,1.49-0.745,4.254-0.745,7.234c0,5.211,2.871,11.485,18.294,11.485c9.893,0,25.103-3.722,25.103-14.041
	c0-0.529-0.108-1.169-0.213-1.699c-0.745-3.617-0.958-7.125-20.528-9.466c-19.571-2.341-30.526-5.641-30.526-16.809
	c0-7.231,4.041-12.124,7.872-15.102c3.404-3.402,14.04-12.444,28.717-12.444c12.125,0,16.274,0,16.274,0s-5.638,7.126-5.638,16.699
	c0,1.063,0.107,2.446,0.318,3.615c-3.828,0.213,2.659-10.423-11.699-14.039c-3.085-0.744-6.062-1.17-9.041-1.17
	c-4.573,0-8.935,1.063-12.656,3.512c0,0-5.531,3.828-5.531,8.934c0,14.465,31.803,10.21,43.182,16.061
	C341.442,135.601,343.356,139.749,343.356,144.427z"/>
<linearGradient id="SVGID_8_" gradientUnits="userSpaceOnUse" x1="419.4924" y1="144.0745" x2="423.1639" y2="42.8409" gradientTransform="matrix(1 0 0 -1 24.9448 234.4946)">
	<stop  offset="0" style="stop-color:#90723B"/>
	<stop  offset="0.33" style="stop-color:#FFF7C6"/>
	<stop  offset="0.66" style="stop-color:#EBD592"/>
	<stop  offset="1" style="stop-color:#9C8256"/>
</linearGradient>
<path fill="url(#SVGID_8_)" d="M451.598,99.437c0,0,0,56.903,0,63.499c0,6.489,1.701,11.168,10.74,11.168H436.6
	c0,0,0-45.949,0-68.922c0-5.212-3.723-5.744-6.703-5.744L451.598,99.437L451.598,99.437z"/>
<linearGradient id="SVGID_9_" gradientUnits="userSpaceOnUse" x1="476.6321" y1="146.1477" x2="480.3035" y2="44.9137" gradientTransform="matrix(1 0 0 -1 24.9448 234.4946)">
	<stop  offset="0" style="stop-color:#90723B"/>
	<stop  offset="0.33" style="stop-color:#FFF7C6"/>
	<stop  offset="0.66" style="stop-color:#EBD592"/>
	<stop  offset="1" style="stop-color:#9C8256"/>
</linearGradient>
<path fill="url(#SVGID_9_)" d="M549.02,174.103c0,0-3.721,0-11.379,0c-2.342,0-5.002,0-7.979,0h-2.659v-0.215
	c-9.783-1.381-14.996-9.89-17.441-13.399c-12.232-16.806-31.166-42.332-32.867-44.672v40.313c0,11.701-10.635,17.975-10.635,17.975
	v-70.199c-2.766-2.446-5.742-4.147-8.402-4.147c0.318,0,6.912,0,19.037,0c7.445,0.85,12.658,7.977,14.998,11.062
	c18.508,24.89,35.629,48.396,35.311,47.97V117.73c0-11.806,10.64-17.974,10.64-17.974v69.348
	C540.936,171.338,544.766,173.252,549.02,174.103z"/>
<linearGradient id="SVGID_10_" gradientUnits="userSpaceOnUse" x1="556.7493" y1="149.0549" x2="560.4207" y2="47.8193" gradientTransform="matrix(1 0 0 -1 24.9448 234.4946)">
	<stop  offset="0" style="stop-color:#90723B"/>
	<stop  offset="0.33" style="stop-color:#FFF7C6"/>
	<stop  offset="0.66" style="stop-color:#EBD592"/>
	<stop  offset="1" style="stop-color:#9C8256"/>
</linearGradient>
<path fill="url(#SVGID_10_)" d="M621.553,152.3c0,0-1.914,32.97-42.543,57.435c0,0,26.272-17.763,27.016-43.714
	c-5.529,3.722-14.252,8.082-25.42,8.082c-17.656,0-34.354-12.764-34.354-34.463c0-20.952,20.211-31.48,20.211-31.48
	c4.891-2.873,15.844-8.51,24.78-8.51c11.912,0,15.953,0,15.953,0s-5.528,7.126-5.528,16.379c0,1.173,0.104,2.555,0.315,3.724
	c-3.828,0.105,2.447-10.317-11.486-13.827c-3.188-0.744-6.17-1.169-9.146-1.169c-4.467,0-8.615,0.956-12.338,3.296
	c-5.957,3.192-9.041,14.998-9.041,24.04c0,18.187,11.166,33.93,33.291,33.93c6.809,0,11.699-1.277,14.467-2.556
	C607.729,163.465,614.002,160.489,621.553,152.3z"/>
<linearGradient id="SVGID_11_" gradientUnits="userSpaceOnUse" x1="630.4456" y1="151.7258" x2="634.117" y2="50.4907" gradientTransform="matrix(1 0 0 -1 24.9448 234.4946)">
	<stop  offset="0" style="stop-color:#90723B"/>
	<stop  offset="0.33" style="stop-color:#FFF7C6"/>
	<stop  offset="0.66" style="stop-color:#EBD592"/>
	<stop  offset="1" style="stop-color:#9C8256"/>
</linearGradient>
<path fill="url(#SVGID_11_)" d="M688.879,144.427c0.104,7.446-4.681,15.847-11.488,20.955c-6.063,4.467-15.529,9.039-30.527,9.039
	c-12.018,0-19.569-4.36-19.569-4.36s10.426-14.358,10.426-22.44c0,0-0.107-0.212,0.529-0.212c0.424,0,1.063,0.424,1.063,2.977
	c0,1.49-0.744,4.254-0.744,7.234c0,5.211,2.871,11.485,18.295,11.485c9.894,0,25.103-3.722,25.103-14.041
	c0-0.529-0.107-1.169-0.215-1.699c-0.742-3.617-0.953-7.125-20.523-9.466c-19.572-2.341-30.527-5.641-30.527-16.809
	c0-7.231,4.041-12.124,7.869-15.102c3.404-3.402,14.039-12.444,28.717-12.444c12.128,0,16.275,0,16.275,0s-5.637,7.126-5.637,16.699
	c0,1.063,0.104,2.446,0.317,3.615c-3.828,0.213,2.658-10.423-11.7-14.039c-3.087-0.744-6.063-1.17-9.039-1.17
	c-4.574,0-8.937,1.063-12.658,3.512c0,0-5.531,3.828-5.531,8.934c0,14.465,31.805,10.21,43.185,16.061
	C686.963,135.601,688.879,139.749,688.879,144.427z"/>
<linearGradient id="SVGID_12_" gradientUnits="userSpaceOnUse" x1="370.7561" y1="142.3079" x2="374.4276" y2="41.0722" gradientTransform="matrix(1 0 0 -1 24.9448 234.4946)">
	<stop  offset="0" style="stop-color:#90723B"/>
	<stop  offset="0.33" style="stop-color:#FFF7C6"/>
	<stop  offset="0.66" style="stop-color:#EBD592"/>
	<stop  offset="1" style="stop-color:#9C8256"/>
</linearGradient>
<path fill="url(#SVGID_12_)" d="M407.855,174.542h31.414c-12.025,0-21.771-10.367-26.75-15.345
	c-3.099-3.101-17.814-17.816-29.726-29.994l21.337-37.973l1.551-2.614l2.015-3.563c4.906-9.58,12.233-6.581,12.233-6.581
	c7.306,3.624,3.444,10.468,6.231,10.313c-0.176-0.96-0.262-2.097-0.262-2.969c0-7.857,4.629-13.708,4.629-13.708s-3.406,0-13.36,0
	c-0.664,0-1.317,0.027-1.958,0.07c-5.753,0.179-10.771,2.324-10.771,2.324c-6.987,2.86-9.59,8.81-9.59,8.81l0.041-0.021
	l-20.208,36.375c0-23.916,0-48.279,0-48.279h-20.318c2.801,0,6.221,1.45,6.221,6.531c0,5.183,0,10.783,0,32.243
	c0,21.563,0,64.381,0,64.381h24.052c-8.398,0-9.954-4.356-9.954-10.367c0-1.869,0-10.991,0-22.812L407.855,174.542z"/>
<linearGradient id="SVGID_13_" gradientUnits="userSpaceOnUse" x1="242.7786" y1="137.6213" x2="246.4491" y2="36.4099" gradientTransform="matrix(1 0 0 -1 24.9448 234.4946)">
	<stop  offset="0" style="stop-color:#90723B"/>
	<stop  offset="0.33" style="stop-color:#FFF7C6"/>
	<stop  offset="0.66" style="stop-color:#EBD592"/>
	<stop  offset="1" style="stop-color:#9C8256"/>
</linearGradient>
<ellipse fill="url(#SVGID_13_)" cx="267.212" cy="82.769" rx="8.193" ry="9.638"/>
<linearGradient id="SVGID_14_" gradientUnits="userSpaceOnUse" x1="417.5188" y1="136.9075" x2="421.1896" y2="35.6909" gradientTransform="matrix(1 0 0 -1 24.9448 234.4946)">
	<stop  offset="0" style="stop-color:#90723B"/>
	<stop  offset="0.33" style="stop-color:#FFF7C6"/>
	<stop  offset="0.66" style="stop-color:#EBD592"/>
	<stop  offset="1" style="stop-color:#9C8256"/>
</linearGradient>
<ellipse fill="url(#SVGID_14_)" cx="441.95" cy="83.483" rx="8.193" ry="9.638"/>
</svg>
