<svg data-v-423bf9ae="" xmlns="http://www.w3.org/2000/svg" viewBox="0 0 245 112" class="iconLeft"><!----><!----><!----><g data-v-423bf9ae="" id="46dcf6c1-3f19-4865-876c-a6d1191bb3d6" fill="#FFCA18" transform="matrix(2.2547913800745794,0,0,2.2547913800745794,128.9923102965463,25.57810348719866)"><path d="M2.62 5.21L2.62 5.21L2.62 5.21Q2.45 5.35 2.28 5.50L2.28 5.50L2.28 5.50Q2.13 5.64 1.97 5.83L1.97 5.83L1.97 5.83Q1.81 6.02 1.65 6.24L1.65 6.24L1.65 6.24Q1.47 5.99 1.28 5.80L1.28 5.80L1.28 5.80Q1.09 5.61 0.94 5.47L0.94 5.47L0.94 5.47Q0.76 5.32 0.59 5.21L0.59 5.21L0.59 5.21Q0.77 5.10 0.97 4.94L0.97 4.94L0.97 4.94Q1.12 4.82 1.31 4.64L1.31 4.64L1.31 4.64Q1.50 4.47 1.65 4.26L1.65 4.26L1.65 4.26Q1.81 4.47 1.97 4.64L1.97 4.64L1.97 4.64Q2.13 4.82 2.28 4.94L2.28 4.94L2.28 4.94Q2.45 5.10 2.62 5.21ZM2.45 15.32L2.45 15.32L2.45 15.32Q2.45 16.90 2.30 18.23L2.30 18.23L2.30 18.23Q2.14 19.56 1.90 20.64L1.90 20.64L1.90 20.64Q1.65 21.73 1.34 22.60L1.34 22.60L1.34 22.60Q1.02 23.46 0.69 24.12L0.69 24.12L0.69 24.12Q-0.08 25.68-1.06 26.59L-1.06 26.59L-1.06 26.59Q-0.38 25.69 0.17 24.30L0.17 24.30L0.17 24.30Q0.39 23.72 0.62 22.95L0.62 22.95L0.62 22.95Q0.84 22.19 1.02 21.26L1.02 21.26L1.02 21.26Q1.20 20.33 1.31 19.21L1.31 19.21L1.31 19.21Q1.41 18.09 1.41 16.77L1.41 16.77L1.41 16.77Q1.41 16.10 1.39 15.24L1.39 15.24L1.39 15.24Q1.36 14.38 1.30 13.47L1.30 13.47L1.30 13.47Q1.25 12.56 1.18 11.68L1.18 11.68L1.18 11.68Q1.11 10.81 1.04 10.12L1.04 10.12L1.04 10.12Q0.97 9.42 0.89 8.97L0.89 8.97L0.89 8.97Q0.81 8.53 0.76 8.48L0.76 8.48L0.76 8.48Q0.69 8.43 0.57 8.37L0.57 8.37L0.57 8.37Q0.45 8.30 0.34 8.25L0.34 8.25L0.34 8.25Q0.20 8.19 0.06 8.12L0.06 8.12L0.06 8.12Q0.45 8.08 0.88 7.94L0.88 7.94L0.88 7.94Q1.25 7.83 1.71 7.61L1.71 7.61L1.71 7.61Q2.17 7.39 2.62 7.03L2.62 7.03L2.62 7.03Q2.52 7.43 2.48 8.17L2.48 8.17L2.48 8.17Q2.45 8.90 2.44 9.95L2.44 9.95L2.44 9.95Q2.44 11.00 2.44 12.36L2.44 12.36L2.44 12.36Q2.45 13.71 2.45 15.32ZM7.29 10.86L7.29 10.86L7.29 10.86Q7.03 10.86 6.64 10.81L6.64 10.81L6.64 10.81Q6.26 10.75 5.90 10.58L5.90 10.58L5.90 10.58Q5.54 10.40 5.29 10.08L5.29 10.08L5.29 10.08Q5.04 9.76 5.04 9.23L5.04 9.23L5.04 9.23Q5.04 8.81 5.26 8.48L5.26 8.48L5.26 8.48Q5.47 8.15 5.81 7.90L5.81 7.90L5.81 7.90Q6.15 7.64 6.57 7.48L6.57 7.48L6.57 7.48Q6.99 7.31 7.38 7.20L7.38 7.20L7.38 7.20Q7.77 7.08 8.10 7.04L8.10 7.04L8.10 7.04Q8.43 6.99 8.60 6.99L8.60 6.99L8.60 6.99Q8.72 6.99 8.91 6.99L8.91 6.99L8.91 6.99Q9.10 7 9.29 7.02L9.29 7.02L9.29 7.02Q9.48 7.04 9.65 7.06L9.65 7.06L9.65 7.06Q9.83 7.08 9.91 7.13L9.91 7.13L9.91 7.13Q9.86 7.31 9.79 7.54L9.79 7.54L9.79 7.54Q9.73 7.77 9.67 8.02L9.67 8.02L9.67 8.02Q9.62 8.26 9.58 8.50L9.58 8.50L9.58 8.50Q9.55 8.75 9.55 8.96L9.55 8.96L9.55 8.96Q9.45 8.75 9.28 8.50L9.28 8.50L9.28 8.50Q9.11 8.26 8.88 8.04L8.88 8.04L8.88 8.04Q8.65 7.83 8.36 7.69L8.36 7.69L8.36 7.69Q8.06 7.55 7.71 7.55L7.71 7.55L7.71 7.55Q7.45 7.55 7.25 7.63L7.25 7.63L7.25 7.63Q7.04 7.71 6.89 7.85L6.89 7.85L6.89 7.85Q6.75 7.99 6.67 8.16L6.67 8.16L6.67 8.16Q6.59 8.32 6.59 8.47L6.59 8.47L6.59 8.47Q6.59 8.79 6.75 9.04L6.75 9.04L6.75 9.04Q6.90 9.28 7.15 9.45L7.15 9.45L7.15 9.45Q7.41 9.62 7.73 9.70L7.73 9.70L7.73 9.70Q8.06 9.79 8.41 9.79L8.41 9.79L8.41 9.79Q8.99 9.79 9.40 9.90L9.40 9.90L9.40 9.90Q9.81 10.01 10.07 10.19L10.07 10.19L10.07 10.19Q10.33 10.37 10.45 10.61L10.45 10.61L10.45 10.61Q10.57 10.84 10.57 11.06L10.57 11.06L10.57 11.06Q10.57 11.80 10.16 12.36L10.16 12.36L10.16 12.36Q9.74 12.91 9.15 13.27L9.15 13.27L9.15 13.27Q8.55 13.64 7.90 13.82L7.90 13.82L7.90 13.82Q7.25 14 6.78 14L6.78 14L6.78 14Q6.06 14 5.50 13.82L5.50 13.82L5.50 13.82Q4.94 13.64 4.72 13.44L4.72 13.44L4.72 13.44Q4.87 13.20 4.98 12.77L4.98 12.77L4.98 12.77Q5.10 12.33 5.14 11.76L5.14 11.76L5.14 11.76Q5.32 12.11 5.63 12.40L5.63 12.40L5.63 12.40Q5.94 12.68 6.31 12.88L6.31 12.88L6.31 12.88Q6.69 13.08 7.12 13.19L7.12 13.19L7.12 13.19Q7.55 13.30 7.99 13.30L7.99 13.30L7.99 13.30Q8.15 13.30 8.34 13.26L8.34 13.26L8.34 13.26Q8.54 13.22 8.71 13.12L8.71 13.12L8.71 13.12Q8.88 13.02 9.00 12.85L9.00 12.85L9.00 12.85Q9.11 12.68 9.11 12.42L9.11 12.42L9.11 12.42Q9.11 12.17 8.99 11.89L8.99 11.89L8.99 11.89Q8.86 11.62 8.62 11.39L8.62 11.39L8.62 11.39Q8.39 11.16 8.05 11.01L8.05 11.01L8.05 11.01Q7.71 10.86 7.29 10.86ZM18.68 9.65L18.68 9.65L18.68 9.65Q19.24 10.61 19.78 11.54L19.78 11.54L19.78 11.54Q20.33 12.46 20.85 13.17L20.85 13.17L20.85 13.17Q21.38 13.89 21.89 14.33L21.89 14.33L21.89 14.33Q22.40 14.77 22.89 14.77L22.89 14.77L22.85 14.87L22.85 14.87Q22.72 14.90 22.52 14.83L22.52 14.83L22.52 14.83Q22.32 14.76 22.09 14.63L22.09 14.63L22.09 14.63Q21.87 14.50 21.64 14.35L21.64 14.35L21.64 14.35Q21.41 14.20 21.22 14.08L21.22 14.08L21.22 14.08Q21.03 13.93 20.73 13.80L20.73 13.80L20.73 13.80Q20.43 13.66 20.09 13.52L20.09 13.52L20.09 13.52Q19.75 13.37 19.43 13.19L19.43 13.19L19.43 13.19Q19.11 13.01 18.87 12.77L18.87 12.77L18.87 12.77Q18.66 12.56 18.35 12.11L18.35 12.11L18.35 12.11Q18.03 11.66 17.65 11.09L17.65 11.09L17.65 11.09Q17.28 10.53 16.87 9.89L16.87 9.89L16.87 9.89Q16.46 9.25 16.09 8.64L16.09 8.64L16.09 8.64Q15.71 8.04 15.38 7.52L15.38 7.52L15.38 7.52Q15.05 7.01 14.83 6.69L14.83 6.69L14.83 6.69Q14.80 6.72 14.76 6.75L14.76 6.75L14.76 6.75Q14.71 6.79 14.64 6.85L14.64 6.85L14.64 7.24L14.64 7.24Q14.64 8.79 14.69 10.00L14.69 10.00L14.69 10.00Q14.73 11.21 14.78 12.05L14.78 12.05L14.78 12.05Q14.84 13.03 14.92 13.78L14.92 13.78L15.79 13.86L15.79 14L15.79 14Q15.57 13.97 15.27 13.93L15.27 13.93L15.27 13.93Q15.02 13.90 14.67 13.88L14.67 13.88L14.67 13.88Q14.32 13.86 13.87 13.86L13.87 13.86L13.87 13.86Q13.41 13.86 13.05 13.88L13.05 13.88L13.05 13.88Q12.70 13.90 12.46 13.93L12.46 13.93L12.46 13.93Q12.18 13.97 11.97 14L11.97 14L11.97 13.90L12.84 13.78L12.84 13.78Q12.96 12.82 13.08 11.63L13.08 11.63L13.08 11.63Q13.17 10.61 13.25 9.22L13.25 9.22L13.25 9.22Q13.33 7.83 13.33 6.13L13.33 6.13L13.33 6.13Q13.33 4.76 13.27 3.67L13.27 3.67L13.27 3.67Q13.22 2.58 13.15 1.82L13.15 1.82L13.15 1.82Q13.08 0.94 12.98 0.25L12.98 0.25L12.11 0.13L12.11-0.01L12.11-0.01Q12.35 0.03 12.63 0.06L12.63 0.06L12.63 0.06Q12.87 0.08 13.19 0.11L13.19 0.11L13.19 0.11Q13.52 0.13 13.92 0.13L13.92 0.13L13.92 0.13Q14.36 0.13 14.71 0.11L14.71 0.11L14.71 0.11Q15.06 0.08 15.33 0.06L15.33 0.06L15.33 0.06Q15.62 0.03 15.88-0.01L15.88-0.01L15.88 0.13L15.05 0.25L15.05 0.25Q14.97 1.08 14.90 2.06L14.90 2.06L14.90 2.06Q14.83 2.90 14.77 4.03L14.77 4.03L14.77 4.03Q14.71 5.15 14.70 6.43L14.70 6.43L14.70 6.43Q15.01 6.19 15.38 5.78L15.38 5.78L15.38 5.78Q15.75 5.36 16.15 4.85L16.15 4.85L16.15 4.85Q16.55 4.34 16.95 3.74L16.95 3.74L16.95 3.74Q17.36 3.15 17.72 2.54L17.72 2.54L17.72 2.54Q18.09 1.93 18.40 1.35L18.40 1.35L18.40 1.35Q18.70 0.77 18.91 0.27L18.91 0.27L18.35 0.13L18.35 0L18.35 0Q18.51 0.04 18.72 0.07L18.72 0.07L18.72 0.07Q18.90 0.10 19.17 0.11L19.17 0.11L19.17 0.11Q19.45 0.13 19.81 0.13L19.81 0.13L19.81 0.13Q20.26 0.13 20.57 0.11L20.57 0.11L20.57 0.11Q20.89 0.10 21.10 0.07L21.10 0.07L21.10 0.07Q21.35 0.04 21.52 0L21.52 0L21.52 0.13L20.83 0.27L20.83 0.27Q20.30 0.66 19.74 1.25L19.74 1.25L19.74 1.25Q19.18 1.83 18.59 2.53L18.59 2.53L18.59 2.53Q18.00 3.22 17.40 3.95L17.40 3.95L17.40 3.95Q16.80 4.68 16.18 5.35L16.18 5.35L16.18 5.35Q16.77 6.26 17.42 7.36L17.42 7.36L17.42 7.36Q18.06 8.47 18.68 9.65ZM25.21 5.24L25.21 5.24L25.21 5.24Q25.03 5.38 24.85 5.53L24.85 5.53L24.85 5.53Q24.70 5.67 24.51 5.85L24.51 5.85L24.51 5.85Q24.32 6.03 24.16 6.23L24.16 6.23L24.16 6.23Q24.01 5.98 23.84 5.80L23.84 5.80L23.84 5.80Q23.67 5.61 23.52 5.49L23.52 5.49L23.52 5.49Q23.35 5.33 23.18 5.24L23.18 5.24L23.18 5.24Q23.37 5.10 23.53 4.94L23.53 4.94L23.53 4.94Q23.69 4.80 23.86 4.62L23.86 4.62L23.86 4.62Q24.02 4.44 24.16 4.23L24.16 4.23L24.16 4.23Q24.32 4.47 24.50 4.65L24.50 4.65L24.50 4.65Q24.68 4.84 24.84 4.97L24.84 4.97L24.84 4.97Q25.02 5.12 25.21 5.24ZM22.96 8.12L22.96 8.12L22.96 8.12Q23.30 7.98 23.60 7.88L23.60 7.88L23.60 7.88Q23.90 7.77 24.17 7.65L24.17 7.65L24.17 7.65Q24.44 7.53 24.70 7.38L24.70 7.38L24.70 7.38Q24.96 7.24 25.21 7.01L25.21 7.01L25.21 7.01Q25.33 7.39 25.31 7.93L25.31 7.93L25.31 7.93Q25.30 8.47 25.25 9.06L25.25 9.06L25.25 9.06Q25.20 9.66 25.19 10.26L25.19 10.26L25.19 10.26Q25.17 10.86 25.29 11.35L25.29 11.35L25.29 11.35Q25.41 11.84 25.71 12.17L25.71 12.17L25.71 12.17Q26.01 12.50 26.61 12.56L26.61 12.56L26.61 12.56Q26.01 12.95 25.59 13.30L25.59 13.30L25.59 13.30Q25.16 13.65 24.74 14.01L24.74 14.01L24.74 14.01Q24.61 13.96 24.46 13.89L24.46 13.89L24.46 13.89Q24.30 13.82 24.16 13.69L24.16 13.69L24.16 13.69Q24.02 13.55 23.92 13.35L23.92 13.35L23.92 13.35Q23.81 13.15 23.80 12.82L23.80 12.82L23.80 12.82Q23.81 11.87 23.84 11.01L23.84 11.01L23.84 11.01Q23.87 10.15 23.81 9.50L23.81 9.50L23.81 9.50Q23.76 8.85 23.57 8.48L23.57 8.48L23.57 8.48Q23.38 8.11 22.96 8.12ZM35.42 10.01L35.42 10.01L35.42 10.01Q35.42 11.00 35.09 11.75L35.09 11.75L35.09 11.75Q34.76 12.50 34.37 13.01L34.37 13.01L34.37 13.01Q33.91 13.59 33.32 14.01L33.32 14.01L33.32 14.01Q33.54 13.66 33.73 13.24L33.73 13.24L33.73 13.24Q33.88 12.88 34.01 12.42L34.01 12.42L34.01 12.42Q34.13 11.96 34.13 11.44L34.13 11.44L34.13 11.44Q34.13 10.81 33.88 10.22L33.88 10.22L33.88 10.22Q33.63 9.63 33.21 9.18L33.21 9.18L33.21 9.18Q32.79 8.72 32.23 8.44L32.23 8.44L32.23 8.44Q31.68 8.16 31.08 8.16L31.08 8.16L31.08 8.16Q30.79 8.16 30.51 8.23L30.51 8.23L30.51 8.23Q30.23 8.30 30.04 8.48L30.04 8.48L30.04 8.48Q30.04 8.78 30.02 9.27L30.02 9.27L30.02 9.27Q30.00 9.77 30.00 10.42L30.00 10.42L30.00 10.42Q30.00 11.06 30.04 11.82L30.04 11.82L30.04 11.82Q30.07 12.57 30.20 13.38L30.20 13.38L30.20 13.38Q29.71 13.38 29.23 13.58L29.23 13.58L29.23 13.58Q28.74 13.78 28.45 14.01L28.45 14.01L28.45 14.01Q28.46 13.75 28.49 13.24L28.49 13.24L28.49 13.24Q28.52 12.73 28.53 12.10L28.53 12.10L28.53 12.10Q28.55 11.48 28.54 10.82L28.54 10.82L28.54 10.82Q28.53 10.16 28.48 9.61L28.48 9.61L28.48 9.61Q28.42 9.06 28.32 8.68L28.32 8.68L28.32 8.68Q28.21 8.30 28.03 8.25L28.03 8.25L28.03 8.25Q27.79 8.15 27.55 8.15L27.55 8.15L27.55 8.15Q27.43 8.15 27.31 8.16L27.31 8.16L27.31 8.16Q27.79 7.85 28.22 7.60L28.22 7.60L28.22 7.60Q28.59 7.39 28.97 7.22L28.97 7.22L28.97 7.22Q29.34 7.04 29.55 7.04L29.55 7.04L29.55 7.04Q29.74 7.04 29.83 7.07L29.83 7.07L29.83 7.07Q29.93 7.10 29.98 7.21L29.98 7.21L29.98 7.21Q30.03 7.32 30.04 7.55L30.04 7.55L30.04 7.55Q30.04 7.77 30.04 8.16L30.04 8.16L30.04 8.16Q30.65 7.62 31.33 7.33L31.33 7.33L31.33 7.33Q32.00 7.04 32.61 7.04L32.61 7.04L32.61 7.04Q33.24 7.04 33.75 7.29L33.75 7.29L33.75 7.29Q34.27 7.55 34.64 7.96L34.64 7.96L34.64 7.96Q35.01 8.37 35.22 8.90L35.22 8.90L35.22 8.90Q35.42 9.44 35.42 10.01ZM41.33 11.66L41.33 11.66L41.33 11.66Q41.16 11.77 40.95 11.98L40.95 11.98L40.95 11.98Q40.74 12.19 40.49 12.40L40.49 12.40L40.49 12.40Q40.24 12.60 39.93 12.75L39.93 12.75L39.93 12.75Q39.62 12.91 39.27 12.91L39.27 12.91L39.27 12.91Q38.88 12.91 38.46 12.71L38.46 12.71L38.46 12.71Q38.04 12.52 37.69 12.17L37.69 12.17L37.69 12.17Q37.34 11.83 37.11 11.35L37.11 11.35L37.11 11.35Q36.89 10.88 36.89 10.32L36.89 10.32L36.89 10.32Q36.89 9.86 37.06 9.48L37.06 9.48L37.06 9.48Q37.23 9.11 37.49 8.82L37.49 8.82L37.49 8.82Q37.76 8.53 38.10 8.27L38.10 8.27L38.10 8.27Q38.44 8.02 38.81 7.78L38.81 7.78L38.81 7.78Q39.38 7.42 39.86 7.21L39.86 7.21L39.86 7.21Q40.33 7 40.66 7L40.66 7L40.66 7Q41.05 7 41.48 7.13L41.48 7.13L41.48 7.13Q41.90 7.27 42.39 7.38L42.39 7.38L42.39 7.38Q42.87 7.49 43.40 7.50L43.40 7.50L43.40 7.50Q43.93 7.52 44.52 7.29L44.52 7.29L44.52 7.29Q44.32 7.49 44.11 7.60L44.11 7.60L44.11 7.60Q43.90 7.71 43.69 7.80L43.69 7.80L43.69 7.80Q43.48 7.88 43.28 7.97L43.28 7.97L43.28 7.97Q43.08 8.05 42.88 8.19L42.88 8.19L42.88 8.19Q42.73 9.67 42.85 10.87L42.85 10.87L42.85 10.87Q42.97 12.07 43.27 13.05L43.27 13.05L43.27 13.05Q43.57 14.03 44.00 14.83L44.00 14.83L44.00 14.83Q44.44 15.62 44.91 16.32L44.91 16.32L44.91 16.32Q45.39 17.01 45.86 17.63L45.86 17.63L45.86 17.63Q46.33 18.26 46.70 18.88L46.70 18.88L46.70 18.88Q47.08 19.50 47.31 20.15L47.31 20.15L47.31 20.15Q47.54 20.80 47.54 21.57L47.54 21.57L47.54 21.57Q47.54 22.51 47.12 23.41L47.12 23.41L47.12 23.41Q46.69 24.32 45.89 25.02L45.89 25.02L45.89 25.02Q45.08 25.73 43.93 26.17L43.93 26.17L43.93 26.17Q42.77 26.60 41.33 26.60L41.33 26.60L41.33 26.60Q40.15 26.60 39.31 26.40L39.31 26.40L39.31 26.40Q38.47 26.19 37.91 25.94L37.91 25.94L37.91 25.94Q37.25 25.65 36.82 25.27L36.82 25.27L36.82 25.27Q37.32 25.61 38.00 25.86L38.00 25.86L38.00 25.86Q38.58 26.08 39.41 26.26L39.41 26.26L39.41 26.26Q40.24 26.45 41.33 26.45L41.33 26.45L41.33 26.45Q42.25 26.45 43.14 26.24L43.14 26.24L43.14 26.24Q44.03 26.04 44.73 25.60L44.73 25.60L44.73 25.60Q45.43 25.16 45.86 24.46L45.86 24.46L45.86 24.46Q46.30 23.76 46.30 22.76L46.30 22.76L46.30 22.76Q46.30 21.97 45.97 21.27L45.97 21.27L45.97 21.27Q45.64 20.57 45.13 19.86L45.13 19.86L45.13 19.86Q44.62 19.15 44.01 18.37L44.01 18.37L44.01 18.37Q43.40 17.58 42.85 16.62L42.85 16.62L42.85 16.62Q42.29 15.65 41.87 14.44L41.87 14.44L41.87 14.44Q41.45 13.23 41.33 11.66ZM41.26 10.47L41.26 10.47L41.26 10.47Q41.26 9.81 41.29 9.36L41.29 9.36L41.29 9.36Q41.33 8.90 41.55 8.41L41.55 8.41L41.55 8.41Q41.38 8.33 41.09 8.24L41.09 8.24L41.09 8.24Q40.80 8.15 40.44 8.09L40.44 8.09L40.44 8.09Q40.08 8.02 39.68 8.00L39.68 8.00L39.68 8.00Q39.28 7.98 38.89 8.04L38.89 8.04L38.89 8.04Q38.56 8.15 38.43 8.44L38.43 8.44L38.43 8.44Q38.30 8.74 38.30 9.07L38.30 9.07L38.30 9.07Q38.30 9.81 38.62 10.34L38.62 10.34L38.62 10.34Q38.93 10.86 39.40 11.17L39.40 11.17L39.40 11.17Q39.86 11.48 40.38 11.56L40.38 11.56L40.38 11.56Q40.91 11.65 41.33 11.51L41.33 11.51L41.33 11.51Q41.33 11.28 41.29 11.02L41.29 11.02L41.29 11.02Q41.26 10.75 41.26 10.47ZM47.88 10.86L47.88 10.86L47.88 10.86Q47.61 10.86 47.23 10.81L47.23 10.81L47.23 10.81Q46.84 10.75 46.49 10.58L46.49 10.58L46.49 10.58Q46.13 10.40 45.88 10.08L45.88 10.08L45.88 10.08Q45.63 9.76 45.63 9.23L45.63 9.23L45.63 9.23Q45.63 8.81 45.84 8.48L45.84 8.48L45.84 8.48Q46.06 8.15 46.40 7.90L46.40 7.90L46.40 7.90Q46.73 7.64 47.15 7.48L47.15 7.48L47.15 7.48Q47.57 7.31 47.96 7.20L47.96 7.20L47.96 7.20Q48.36 7.08 48.69 7.04L48.69 7.04L48.69 7.04Q49.01 6.99 49.18 6.99L49.18 6.99L49.18 6.99Q49.31 6.99 49.50 6.99L49.50 6.99L49.50 6.99Q49.69 7 49.88 7.02L49.88 7.02L49.88 7.02Q50.06 7.04 50.24 7.06L50.24 7.06L50.24 7.06Q50.41 7.08 50.50 7.13L50.50 7.13L50.50 7.13Q50.44 7.31 50.38 7.54L50.38 7.54L50.38 7.54Q50.32 7.77 50.26 8.02L50.26 8.02L50.26 8.02Q50.20 8.26 50.17 8.50L50.17 8.50L50.17 8.50Q50.13 8.75 50.13 8.96L50.13 8.96L50.13 8.96Q50.04 8.75 49.87 8.50L49.87 8.50L49.87 8.50Q49.70 8.26 49.47 8.04L49.47 8.04L49.47 8.04Q49.24 7.83 48.94 7.69L48.94 7.69L48.94 7.69Q48.65 7.55 48.30 7.55L48.30 7.55L48.30 7.55Q48.03 7.55 47.83 7.63L47.83 7.63L47.83 7.63Q47.63 7.71 47.48 7.85L47.48 7.85L47.48 7.85Q47.33 7.99 47.26 8.16L47.26 8.16L47.26 8.16Q47.18 8.32 47.18 8.47L47.18 8.47L47.18 8.47Q47.18 8.79 47.33 9.04L47.33 9.04L47.33 9.04Q47.49 9.28 47.74 9.45L47.74 9.45L47.74 9.45Q47.99 9.62 48.32 9.70L48.32 9.70L48.32 9.70Q48.65 9.79 49.00 9.79L49.00 9.79L49.00 9.79Q49.57 9.79 49.99 9.90L49.99 9.90L49.99 9.90Q50.40 10.01 50.66 10.19L50.66 10.19L50.66 10.19Q50.92 10.37 51.04 10.61L51.04 10.61L51.04 10.61Q51.16 10.84 51.16 11.06L51.16 11.06L51.16 11.06Q51.16 11.80 50.74 12.36L50.74 12.36L50.74 12.36Q50.33 12.91 49.74 13.27L49.74 13.27L49.74 13.27Q49.14 13.64 48.49 13.82L48.49 13.82L48.49 13.82Q47.84 14 47.36 14L47.36 14L47.36 14Q46.65 14 46.09 13.82L46.09 13.82L46.09 13.82Q45.53 13.64 45.30 13.44L45.30 13.44L45.30 13.44Q45.46 13.20 45.57 12.77L45.57 12.77L45.57 12.77Q45.68 12.33 45.72 11.76L45.72 11.76L45.72 11.76Q45.91 12.11 46.21 12.40L46.21 12.40L46.21 12.40Q46.52 12.68 46.90 12.88L46.90 12.88L46.90 12.88Q47.28 13.08 47.71 13.19L47.71 13.19L47.71 13.19Q48.13 13.30 48.58 13.30L48.58 13.30L48.58 13.30Q48.73 13.30 48.93 13.26L48.93 13.26L48.93 13.26Q49.13 13.22 49.29 13.12L49.29 13.12L49.29 13.12Q49.46 13.02 49.58 12.85L49.58 12.85L49.58 12.85Q49.70 12.68 49.70 12.42L49.70 12.42L49.70 12.42Q49.70 12.17 49.57 11.89L49.57 11.89L49.57 11.89Q49.45 11.62 49.21 11.39L49.21 11.39L49.21 11.39Q48.97 11.16 48.64 11.01L48.64 11.01L48.64 11.01Q48.30 10.86 47.88 10.86Z"></path></g><defs data-v-423bf9ae=""><linearGradient data-v-423bf9ae="" gradientTransform="rotate(25)" id="cd71f622-4c35-4040-99c9-f1119e30a47e" x1="0%" y1="0%" x2="100%" y2="0%"><stop data-v-423bf9ae="" offset="0%" style="stop-color: rgb(255, 218, 154); stop-opacity: 1;"></stop><stop data-v-423bf9ae="" offset="100%" style="stop-color: rgb(255, 164, 3); stop-opacity: 1;"></stop></linearGradient></defs><g data-v-423bf9ae="" id="79582891-822b-4a6c-8bb5-1c8d8c2edbb1" transform="matrix(1.1111111111111112,0,0,1.1111111111111112,-2.637671788533531,-0.6666666666666714)" stroke="none" fill="url(#cd71f622-4c35-4040-99c9-f1119e30a47e)"><path d="M90.321 8.351c-4.771 0-8.65 3.881-8.65 8.65a8.566 8.566 0 0 0 3.902 7.2L67.211 61.526l4.034-41.376c4.658-.13 8.407-3.958 8.407-8.646 0-4.771-3.88-8.65-8.65-8.65s-8.65 3.88-8.65 8.65c0 3.483 2.135 6.611 5.31 7.944L56.466 59.52l-3.642-41.45a8.571 8.571 0 0 0 6.826-8.42C59.65 4.881 55.771 1 51 1c-4.77 0-8.65 3.881-8.65 8.65a8.57 8.57 0 0 0 6.825 8.42l-3.641 41.447-11.193-40.069c3.173-1.333 5.309-4.461 5.309-7.944 0-4.771-3.881-8.65-8.65-8.65s-8.65 3.88-8.65 8.65c0 4.688 3.75 8.517 8.407 8.646l4.034 41.376L16.426 24.2a8.56 8.56 0 0 0 3.902-7.199c0-4.77-3.88-8.65-8.649-8.65-4.771 0-8.65 3.881-8.65 8.65s3.88 8.65 8.65 8.65c.43 0 .862-.039 1.318-.119L34.606 101l1.006-.241c9.768-2.349 21.003-2.349 30.775 0l1.008.241 21.609-75.468c.456.081.887.119 1.317.119 4.771 0 8.65-3.881 8.65-8.65s-3.879-8.65-8.65-8.65z"></path></g><!----></svg>