<svg data-v-423bf9ae="" xmlns="http://www.w3.org/2000/svg" viewBox="0 0 57.56520538330078 60" class="icon"><!----><!----><!----><!----><g data-v-423bf9ae="" id="82f7b120-a59b-4f4a-8f0a-c2863fd2785d" transform="matrix(0.6,0,0,0.6,-1.8174011230468743,-0.5999999999999979)" stroke="none" fill="white"><path d="M90.321 8.351c-4.771 0-8.65 3.881-8.65 8.65a8.566 8.566 0 0 0 3.902 7.2L67.211 61.526l4.034-41.376c4.658-.13 8.407-3.958 8.407-8.646 0-4.771-3.88-8.65-8.65-8.65s-8.65 3.88-8.65 8.65c0 3.483 2.135 6.611 5.31 7.944L56.466 59.52l-3.642-41.45a8.571 8.571 0 0 0 6.826-8.42C59.65 4.881 55.771 1 51 1c-4.77 0-8.65 3.881-8.65 8.65a8.57 8.57 0 0 0 6.825 8.42l-3.641 41.447-11.193-40.069c3.173-1.333 5.309-4.461 5.309-7.944 0-4.771-3.881-8.65-8.65-8.65s-8.65 3.88-8.65 8.65c0 4.688 3.75 8.517 8.407 8.646l4.034 41.376L16.426 24.2a8.56 8.56 0 0 0 3.902-7.199c0-4.77-3.88-8.65-8.649-8.65-4.771 0-8.65 3.881-8.65 8.65s3.88 8.65 8.65 8.65c.43 0 .862-.039 1.318-.119L34.606 101l1.006-.241c9.768-2.349 21.003-2.349 30.775 0l1.008.241 21.609-75.468c.456.081.887.119 1.317.119 4.771 0 8.65-3.881 8.65-8.65s-3.879-8.65-8.65-8.65z"></path></g><!----></svg>